inDegrees=yes
name=ik_lifting_orientations
DataType=double
version=3
OpenSimVersion=4.5-2024-01-10-34fd6af
endheader
time	pelvis_tilt	pelvis_list	pelvis_rotation	pelvis_tx	pelvis_ty	pelvis_tz	hip_flexion_r	hip_adduction_r	hip_rotation_r	knee_angle_r	knee_angle_r_beta	ankle_angle_r	subtalar_angle_r	mtp_angle_r	hip_flexion_l	hip_adduction_l	hip_rotation_l	knee_angle_l	knee_angle_l_beta	ankle_angle_l	subtalar_angle_l	mtp_angle_l	lumbar_extension	lumbar_bending	lumbar_rotation	arm_flex_r	arm_add_r	arm_rot_r	elbow_flex_r	pro_sup_r	wrist_flex_r	wrist_dev_r	arm_flex_l	arm_add_l	arm_rot_l	elbow_flex_l	pro_sup_l	wrist_flex_l	wrist_dev_l
1.13	0.02175754309039509	0.003505405458160692	2.439787050758473	0	0.9399999999999999	0	44.62388826805409	-10.00124706447721	0	59.98220556501326	1.046886979717547	-5.000101695070414	0	0	44.62388826805409	-10.00124706447721	0	59.98220556501326	1.046886979717547	-5.000101695070414	0	0	-0.03809002027871784	-0.005701701326249353	-0.01124667703358066	1.278446043925214	-5.819381489706742	-2.96192595635869	54.86620944275403	45.00123579902743	0	0	0	-13.53165837214241	0	75.03383246987997	45.00123579902743	0	0
1.14	0.0311186754399345	0.004186602482665221	2.442273418674171	0	0.9399999999999999	0	44.62621454480348	-10.00122865885451	0	59.98231609632383	1.046888908852843	-5.000099898742524	0	0	44.62621454480348	-10.00122865885451	0	59.98231609632383	1.046888908852843	-5.000099898742524	0	0	-0.04756743502459445	-0.005552929971963006	-0.01448333178660665	1.274524272008009	-5.87188981170191	-3.379521562852596	57.33268040946109	45.00122023893383	0	0	0	-13.53719570357322	0	75.03362430438943	45.00122023893383	0	0
1.15	0.02249353555774168	0.002985875150492867	2.439812178683727	0	0.9399999999999999	0	44.62631557700146	-10.00122749866581	0	59.98231987817647	1.046888974858623	-5.000099775513069	0	0	44.62631557700146	-10.00122749866581	0	59.98231987817647	1.046888974858623	-5.000099775513069	0	0	-0.03855410976927262	-0.005460780001638563	-0.01137688130651317	1.271296738433607	-5.867909153733373	-3.528301873816893	58.42280149510131	45.00121932766676	0	0	0	-13.5373981656287	0	75.03361526371647	45.00121932766676	0	0
1.16	0.02392471099622244	0.01245288690512421	2.437925188236324	0	0.9399999999999999	0	44.62640925818826	-10.00122642295379	0	59.98232338340537	1.046889036036409	-5.000099661274825	0	0	44.62640925818826	-10.00122642295379	0	59.98232338340537	1.046889036036409	-5.000099661274825	0	0	-0.03851632549183705	-0.009434091028640899	-0.01062801004008703	1.385553828012213	-6.407477961569964	-3.504264916520957	59.49640041141354	45.00121848267948	0	0	0	-13.5375858570996	0	75.03360688083474	45.00121848267948	0	0
1.17	0.02837583199193975	0.004154035926138557	2.442831053732669	0	0.9399999999999999	0	44.62650987741293	-10.00122526907948	0	59.98232715038706	1.046889101782642	-5.000099538785681	0	0	44.62650987741293	-10.00122526907948	0	59.98232715038706	1.046889101782642	-5.000099538785681	0	0	-0.04966181470634921	-0.006184185953322039	-0.01565669405711474	1.38198925846488	-6.435006248885645	-3.782222568342844	60.86024443810374	45.00121757601627	0	0	0	-13.53778754923664	0	75.03359787711557	45.00121757601627	0	0
1.18	0.02337219576147444	0.002798986851975173	2.440418810833548	0	0.9399999999999999	0	44.62661065017131	-10.00122411421676	0	59.98233092336156	1.04688916763347	-5.000099416226317	0	0	44.62661065017131	-10.00122411421676	0	59.98233092336156	1.04688916763347	-5.000099416226317	0	0	-0.0398846782712407	-0.005145351401611323	-0.01268143125760648	1.369191648121165	-6.424855247319213	-3.939758028335805	61.96231363964888	45.00121666839983	0	0	0	-13.53798957654232	0	75.03358885965747	45.00121666839983	0	0
1.19	0.0231479651341321	0.002616763036615784	2.44028588812935	0	0.9399999999999999	0	44.62671144086382	-10.00122295998048	0	59.98233469737201	1.046889233502378	-5.000099293769721	0	0	44.62671144086382	-10.00122295998048	0	59.98233469737201	1.046889233502378	-5.000099293769721	0	0	-0.03971731240290135	-0.005002647049235417	-0.01264765522990951	1.361212517588874	-6.41121913980807	-4.096746423913196	63.06894458564128	45.00121576108934	0	0	0	-13.53819167198735	0	75.0335798405944	45.00121576108934	0	0
